<svg width="199px" height="316px" viewBox="0 0 199 316" version="1.1" xmlns="http://www.w3.org/2000/svg" xmlns:xlink="http://www.w3.org/1999/xlink">
    <defs>
        <rect id="path-1" x="97" y="212" width="19" height="104"></rect>
        <path d="M100.011432,62.5239459 C105.152984,50.0047676 109.723252,38.8033975 113.722236,28.9198357 C119.720713,14.0944929 121.246158,3.70907119 133.765777,1.98328877 C146.285396,0.257506345 150.570022,0.257506345 172.850078,1.98328877 C187.079126,3.08545121 179.70548,22.0013424 169.422377,36.8266851 C164.927159,43.3075257 123.477729,77.1747239 117.149937,82.2910695 L100.011432,62.5239459 Z" id="path-2"></path>
        <path d="M109.43761,69.4424392 L93.2537089,82.1848076 C86.9259175,77.068462 45.4764873,43.2012638 40.9812691,36.7204232 C30.6981662,21.8950805 23.3245199,2.97918929 37.5535681,1.87702684 C59.8336244,0.151244421 64.1182506,0.151244421 76.6378695,1.87702684 C84.984282,3.02754846 91.4176021,12.0763635 95.9378296,29.023472 L109.43761,69.4424392 Z" id="path-3"></path>
        <linearGradient x1="50%" y1="1.93120217%" x2="50%" y2="100%" id="linearGradient-4">
            <stop stop-color="#C7FF14" offset="0%"></stop>
            <stop stop-color="#3EDA7A" offset="100%"></stop>
        </linearGradient>
    </defs>
    <g id="Page-1" stroke="none" stroke-width="1" fill="none" fill-rule="evenodd">
        <g id="Desktop-HD" transform="translate(-772.000000, -630.000000)">
            <g id="Cartoon" transform="translate(767.541091, 629.492977)">
                <path d="M-12.9607011,144.445086 L-5.91337356,159.210915 L-5.91337356,159.210915 C4.67565051,181.397442 31.2454841,190.799075 53.4320107,180.210051 C61.0805462,176.559614 67.52802,170.801564 72.0165388,163.612754 L72.0165388,163.612754" id="Path-3" stroke="#332E56" stroke-width="6" transform="translate(29.527919, 164.503183) rotate(103.000000) translate(-29.527919, -164.503183) "></path>
                <circle id="Oval-3" fill="#332E56" cx="22.1093467" cy="208.537269" r="8.5"></circle>
                <path d="M135.886039,146.60101 L142.933366,161.36684 L142.933366,161.36684 C153.52239,183.553366 180.092224,192.955 202.278751,182.365976 C209.927286,178.715538 216.37476,172.957488 220.863279,165.768678 L220.863279,165.768678" id="Path-3" stroke="#332E56" stroke-width="6" transform="translate(178.374659, 166.659107) scale(-1, 1) rotate(103.000000) translate(-178.374659, -166.659107) "></path>
                <circle id="Oval-3" fill="#332E56" transform="translate(183.975775, 203.801775) scale(-1, 1) translate(-183.975775, -203.801775) " cx="183.975775" cy="203.801775" r="8.5"></circle>
                <g id="Rectangle-7">
                    <use fill="#48DD73" fill-rule="evenodd" xlink:href="#path-1"></use>
                    <rect stroke="#332E56" stroke-width="4" x="99" y="214" width="15" height="100"></rect>
                </g>
                <g id="Rectangle-3">
                    <use fill="#C7FF14" fill-rule="evenodd" xlink:href="#path-2"></use>
                    <path stroke="#332E56" stroke-width="4" d="M102.329354,62.1443322 L117.393636,79.5190983 C123.902188,74.2321258 134.026656,65.8697375 142.681218,58.544019 C156.643064,46.7259085 165.943575,38.332979 167.779,35.6868116 C173.206196,27.8623212 177.164568,19.8517832 178.367471,13.8648266 C179.635202,7.55521541 177.948382,4.38418723 172.695624,3.97731579 C150.545843,2.26162434 146.392719,2.26162434 134.038887,3.96455376 C127.003021,4.9344214 123.815087,8.45247917 120.038228,18.0087628 C119.637058,19.0238122 116.647552,27.022183 115.576228,29.6699786 C111.697577,39.2561348 107.281968,50.0808771 102.329354,62.1443322 Z"></path>
                </g>
                <g id="Path">
                    <use fill="#C7FF14" fill-rule="evenodd" xlink:href="#path-3"></use>
                    <path stroke="#332E56" stroke-width="4" d="M107.094882,68.7414628 L94.0408406,29.657059 L94.0053881,29.5389036 C89.6710513,13.2887315 83.6836878,4.8671786 76.3647595,3.85829183 C64.0109269,2.15536242 59.8578034,2.15536242 37.7080227,3.87105387 C32.455264,4.27792531 30.7684446,7.44895349 32.0361754,13.7585646 C33.2390782,19.7455213 37.1974503,27.7560593 42.6246462,35.5805497 C44.4600716,38.226717 53.7605817,46.6196466 67.7224287,58.4377571 C76.4938042,65.8623539 86.7750349,74.3517941 93.2715677,79.6252269 L107.094882,68.7414628 Z"></path>
                </g>
                <rect id="Rectangle-5" fill="#C7FF14" x="93" y="53" width="19" height="11"></rect>
                <path d="M105.5,259 C136.704088,259 162,215.347763 162,161.5 C162,127.248975 144.85563,96.0916821 110.566891,68.0281215 L110.566891,68.0281212 C107.619606,65.6159209 103.380395,65.6159209 100.43311,68.0281212 C66.1443699,96.0916819 49,127.248975 49,161.5 C49,215.347763 74.2959116,259 105.5,259 Z" id="Oval" stroke="#332E56" stroke-width="5" fill="url(#linearGradient-4)"></path>
                <circle id="Oval-2" fill="#332E56" cx="83" cy="131" r="9"></circle>
                <circle id="Oval-2" fill="#332E56" cx="125" cy="131" r="9"></circle>
                <path d="M96.8111832,184.811183 L97.5869638,186.436628 L97.5869638,186.436628 C108.579352,209.468299 136.161302,219.228066 159.192973,208.235678 C168.611689,203.740381 176.231292,196.189056 180.811183,186.811183 L180.811183,186.811183" id="Path-3" stroke="#332E56" stroke-width="5" transform="translate(138.811183, 228.811183) rotate(-45.000000) translate(-138.811183, -228.811183) "></path>
                <rect id="Rectangle-6" fill="#332E56" transform="translate(73.258945, 38.791070) rotate(-35.000000) translate(-73.258945, -38.791070) " x="70.758945" y="11.2910695" width="5" height="55"></rect>
                <rect id="Rectangle-6" fill="#332E56" transform="translate(136.258945, 44.791070) scale(-1, 1) rotate(-35.000000) translate(-136.258945, -44.791070) " x="133.758945" y="17.2910695" width="5" height="55"></rect>
            </g>
        </g>
    </g>
</svg>